<svg width="180" height="180" viewBox="0 0 512 512" xmlns="http://www.w3.org/2000/svg">
  <style>
    @media (prefers-color-scheme: light) {
      .bg { fill: #ffffff; }
      .icon { fill: #4a9a6f; }
    }
    @media (prefers-color-scheme: dark) {
      .bg { fill: #1a1d1f; }
      .icon { fill: #4a9a6f; }
    }
  </style>

  <!-- Background with rounded corners (scaled to viewBox) -->
  <rect class="bg" width="512" height="512" rx="102" />

  <!-- Bonsai illustration -->
  <g class="icon">
    <path d="M86.963,212.632c11.073,0,38.78-7.789,80.831-7.789c42.05,0,69.761,7.789,80.831,7.789c17.933,0,32.465-14.536,32.465-32.465c0-17.922-14.532-32.465-32.465-32.465c-0.1,0-0.186,0.007-0.282,0.02c-2.016-15.996-15.64-28.386-32.178-28.386c-4.556,0-8.882,0.946-12.815,2.64c-5.417-14.378-19.284-24.601-35.557-24.601c-16.274,0-30.141,10.224-35.558,24.601c-3.929-1.694-8.255-2.64-12.811-2.64c-16.542,0-30.162,12.39-32.178,28.386c-0.096-0.013-0.189-0.02-0.284-0.02c-17.933,0-32.469,14.543-32.469,32.465C54.494,198.097,69.03,212.632,86.963,212.632z M72.67,182.862l14.22,0.308l-12.42-12.204c-0.741-0.728-0.755-1.92-0.024-2.661c0.73-0.74,1.919-0.761,2.666-0.027l13.213,12.986l2.478-15.139c0.168-1.022,1.135-1.714,2.163-1.55c1.029,0.164,1.724,1.138,1.557,2.16l-2.908,17.766l9.144,8.982c9.273-1.468,21.436-3.339,36.226-4.539l-7.648-13.425l-17.285-3.586c-1.019-0.212-1.676-1.213-1.46-2.228c0.208-1.015,1.206-1.673,2.225-1.467l14.032,2.914l-6.864-12.061l-18.608-4.429c-1.012-0.24-1.636-1.262-1.396-2.263c0.24-1.014,1.255-1.646,2.27-1.398l15.177,3.62l-9.476-16.634c-0.518-0.905-0.199-2.05,0.703-2.571c0.905-0.514,2.056-0.199,2.571,0.706l9.668,16.97l5.06-15.482c0.319-0.994,1.382-1.529,2.372-1.207c0.988,0.322,1.526,1.392,1.203,2.38l-6.006,18.416c0.027,0.165,0.013,0.336,0,0.508l6.668,11.697l4.947-13.775c0.352-0.981,1.433-1.495,2.41-1.145c0.981,0.357,1.491,1.44,1.138,2.413l-6.036,16.813l8.512,14.933c7.052-0.486,14.622-0.809,22.75-0.856V174.75l-11.159-8.228c-0.84-0.617-1.018-1.796-0.397-2.633c0.617-0.836,1.793-1.014,2.633-0.397l8.924,6.582v-13.85c-0.069-0.048-0.147-0.061-0.216-0.123l-16.326-13.494c-0.802-0.672-0.911-1.858-0.25-2.66c0.668-0.802,1.855-0.912,2.657-0.247l14.135,11.697V137.63l-18.214-17.388c-0.755-0.713-0.778-1.906-0.062-2.66c0.716-0.747,1.912-0.782,2.66-0.062l15.616,14.9v-24.882c0-1.042,0.843-1.886,1.882-1.886c1.046,0,1.882,0.843,1.882,1.886v25.444l16.202-15.462c0.752-0.72,1.944-0.685,2.664,0.062c0.717,0.755,0.693,1.948-0.061,2.66l-18.804,17.944v13.692l14.721-12.178c0.806-0.665,1.992-0.555,2.66,0.247c0.662,0.802,0.548,1.988-0.253,2.66l-16.326,13.494c-0.236,0.206-0.514,0.315-0.802,0.37v14.028l9.51-7.007c0.84-0.617,2.019-0.439,2.64,0.397c0.617,0.837,0.435,2.016-0.401,2.633l-11.749,8.666v12.596c8.352,0.048,16.106,0.383,23.319,0.898l8.53-14.974l-6.034-16.813c-0.353-0.973,0.158-2.056,1.138-2.413c0.98-0.35,2.057,0.164,2.407,1.145l4.947,13.775l6.672-11.697c-0.014-0.171-0.031-0.343,0-0.508l-6.007-18.416c-0.326-0.988,0.213-2.057,1.204-2.38c0.991-0.322,2.056,0.213,2.372,1.207l5.053,15.482l9.67-16.97c0.515-0.905,1.67-1.221,2.575-0.706c0.902,0.521,1.218,1.666,0.703,2.571l-9.479,16.634l15.178-3.62c1.014-0.247,2.032,0.384,2.272,1.398c0.24,1.001-0.387,2.023-1.392,2.263l-18.612,4.429l-6.867,12.061l14.032-2.914c1.022-0.206,2.019,0.452,2.228,1.467c0.212,1.015-0.442,2.016-1.461,2.228l-17.285,3.586l-7.672,13.459c14.803,1.227,26.945,3.126,36.171,4.587l9.441-9.284l-3.119-17.511c-0.182-1.028,0.5-2.008,1.522-2.187c1.025-0.186,2.002,0.5,2.187,1.522l2.667,14.982l13.031-12.808c0.74-0.734,1.936-0.713,2.664,0.027c0.73,0.741,0.716,1.934-0.025,2.661l-12.249,12.04l14.07-0.144c1.039-0.014,1.889,0.823,1.903,1.865c0.01,1.036-0.826,1.892-1.868,1.906l-17.978,0.172l-7.607,7.48c4.738,0.734,8.673,1.276,10.648,1.262c1.045,0,1.888,0.843,1.888,1.886c0,1.042-0.843,1.879-1.888,1.879c-3.192,0-8.825-0.919-15.451-1.968c-14.725-2.318-36.857-5.814-65.38-5.814c-28.53,0-50.663,3.496-65.383,5.814c-6.62,1.049-12.253,1.968-15.448,1.968c-1.043,0-1.882-0.837-1.882-1.879c0-1.043,0.84-1.886,1.882-1.886c2.046,0.014,6.198-0.568,11.155-1.337l-7.305-7.179l-18.221-0.398c-1.042-0.027-1.865-0.884-1.841-1.926C70.771,183.664,71.635,182.842,72.67,182.862z"/>
    <path d="M447.03,217.09c-0.096,0-0.181,0.013-0.274,0.013c-1.948-15.461-15.126-27.432-31.118-27.432c-4.402,0-8.588,0.912-12.39,2.544c-5.238-13.898-18.646-23.785-34.378-23.785c-15.736,0-29.146,9.887-34.385,23.785c-3.802-1.632-7.984-2.544-12.386-2.544c-15.996,0-29.171,11.972-31.118,27.432c-0.089,0-0.178-0.013-0.271-0.013c-17.34,0-31.392,14.062-31.392,31.396s14.053,31.389,31.392,31.389c10.706,0,37.498-7.529,78.16-7.529c40.655,0,67.454,7.529,78.16,7.529c17.337,0,31.389-14.056,31.389-31.389S464.367,217.09,447.03,217.09z M461.47,254.738l-17.382,0.171l-7.36,7.227c4.583,0.706,8.385,1.227,10.301,1.22c1.005,0,1.824,0.816,1.824,1.824c0,1.001-0.819,1.824-1.824,1.824c-3.088-0.021-8.536-0.899-14.94-1.899c-14.241-2.256-35.643-5.636-63.22-5.636c-27.587,0-48.989,3.38-63.226,5.636c-6.401,1-11.845,1.878-14.934,1.899c-1.011,0-1.824-0.823-1.824-1.824c0-1.008,0.813-1.824,1.824-1.824c1.974,0.007,5.989-0.556,10.785-1.296l-7.065-6.939l-17.618-0.384c-1.005-0.028-1.806-0.864-1.783-1.865c0.02-1.008,0.854-1.81,1.862-1.783l13.747,0.301l-12.008-11.8c-0.717-0.713-0.73-1.858-0.02-2.585c0.703-0.714,1.854-0.727,2.574-0.02l12.777,12.56l2.396-14.632c0.164-0.994,1.097-1.666,2.091-1.515c0.995,0.165,1.67,1.111,1.505,2.098l-2.808,17.182l8.838,8.681c8.972-1.42,20.727-3.23,35.027-4.388l-7.392-12.987l-16.716-3.469c-0.984-0.199-1.618-1.166-1.412-2.153c0.202-0.981,1.169-1.618,2.152-1.412l13.57,2.818l-6.64-11.663l-17.992-4.285c-0.977-0.227-1.58-1.214-1.347-2.194c0.233-0.981,1.213-1.584,2.194-1.344l14.676,3.489l-9.164-16.071c-0.497-0.878-0.192-1.996,0.682-2.489c0.874-0.494,1.988-0.198,2.485,0.679l9.345,16.414l4.892-14.975c0.309-0.953,1.337-1.481,2.294-1.166c0.96,0.315,1.477,1.338,1.166,2.304l-5.808,17.814c0.028,0.15,0.011,0.315,0,0.472l6.449,11.32l4.783-13.322c0.339-0.947,1.381-1.44,2.328-1.104c0.95,0.343,1.444,1.385,1.104,2.331l-5.838,16.264l8.228,14.439c6.815-0.472,14.141-0.788,21.999-0.836v-12.602l-10.789-7.954c-0.812-0.604-0.984-1.735-0.384-2.551c0.597-0.81,1.735-0.981,2.547-0.384l8.626,6.362v-13.384c-0.065-0.048-0.144-0.069-0.209-0.116l-15.784-13.062c-0.778-0.638-0.881-1.796-0.243-2.564c0.644-0.774,1.796-0.885,2.571-0.24l13.665,11.306v-13.308l-17.611-16.806c-0.73-0.7-0.755-1.852-0.062-2.571c0.692-0.734,1.851-0.761,2.574-0.069l15.098,14.406v-24.06c0-1.008,0.816-1.823,1.824-1.823c1.008,0,1.82,0.816,1.82,1.823v24.595l15.664-14.941c0.727-0.692,1.878-0.665,2.577,0.069c0.693,0.72,0.669,1.872-0.061,2.571l-18.18,17.34v13.24l14.234-11.773c0.775-0.645,1.927-0.534,2.568,0.24c0.641,0.768,0.534,1.926-0.24,2.564l-15.79,13.062c-0.23,0.185-0.497,0.295-0.772,0.35v13.569l9.195-6.781c0.812-0.597,1.95-0.426,2.547,0.384c0.596,0.816,0.425,1.947-0.384,2.551l-11.358,8.371v12.184c8.07,0.048,15.571,0.377,22.544,0.878l8.252-14.481l-5.834-16.264c-0.343-0.946,0.151-1.988,1.097-2.331c0.946-0.336,1.988,0.157,2.332,1.104l4.778,13.322l6.452-11.32c-0.014-0.157-0.031-0.315,0-0.472l-5.808-17.814c-0.312-0.966,0.206-1.988,1.162-2.304c0.961-0.315,1.986,0.213,2.298,1.166l4.885,14.975l9.352-16.414c0.497-0.878,1.611-1.173,2.489-0.679c0.871,0.494,1.176,1.612,0.679,2.489l-9.164,16.071l14.673-3.489c0.984-0.24,1.967,0.363,2.198,1.344c0.233,0.98-0.374,1.968-1.347,2.194l-17.995,4.285l-6.637,11.663l13.569-2.818c0.984-0.206,1.947,0.432,2.149,1.412c0.209,0.987-0.425,1.954-1.412,2.153l-16.713,3.469l-7.416,13.02c14.31,1.186,26.052,3.024,34.975,4.43l9.13-8.969l-3.017-16.942c-0.182-0.994,0.483-1.934,1.471-2.112c0.987-0.185,1.936,0.486,2.114,1.474l2.578,14.475l12.598-12.376c0.72-0.706,1.872-0.693,2.575,0.02c0.71,0.726,0.696,1.872-0.017,2.585l-11.844,11.628l13.6-0.13c1.004-0.014,1.83,0.795,1.837,1.803C463.287,253.895,462.477,254.724,461.47,254.738z"/>
    <path d="M317.186,97.478c-2.568-1.104-5.396-1.722-8.372-1.722c-10.812,0-19.716,8.091-21.028,18.547c-0.066,0-0.124-0.013-0.189-0.013c-11.717,0-21.213,9.503-21.213,21.22c0,11.718,9.496,21.214,21.213,21.214c7.241,0,25.345-5.088,52.826-5.088c27.48,0,45.592,5.088,52.829,5.088c11.717,0,21.217-9.496,21.217-21.214c0-11.718-9.5-21.22-21.217-21.22c-0.066,0-0.12,0.013-0.186,0.013c-1.32-10.456-10.222-18.547-21.032-18.547c-2.976,0-5.801,0.617-8.376,1.722C360.121,88.092,351.06,81.4,340.423,81.4C329.791,81.4,320.724,88.092,317.186,97.478z"/>
    <path d="M173.837,317.063c12.955,0,23.456-10.497,23.456-23.456c0-12.952-10.501-23.456-23.456-23.456c-0.072,0-0.133,0.007-0.206,0.014c-1.453-11.554-11.296-20.501-23.247-20.501c-3.291,0-6.421,0.679-9.26,1.906c-3.911-10.388-13.932-17.772-25.688-17.772c-11.756,0-21.776,7.384-25.691,17.772c-2.842-1.227-5.966-1.906-9.256-1.906c-11.951,0-21.793,8.948-23.247,20.501c-0.069-0.007-0.134-0.014-0.206-0.014c-12.956,0-23.456,10.504-23.456,23.456c0,12.958,10.5,23.456,23.456,23.456c7.998,0,28.019-5.629,58.4-5.629C145.815,311.434,165.836,317.063,173.837,317.063z"/>
    <path d="M197.231,75.325c7.238,0,25.345-5.094,52.826-5.094c27.48,0,45.592,5.094,52.829,5.094c11.718,0,21.214-9.503,21.214-21.221c0-11.71-9.497-21.214-21.214-21.214c-0.065,0-0.123,0-0.189,0.014c-1.316-10.456-10.219-18.554-21.028-18.554c-2.976,0-5.804,0.617-8.376,1.728C269.756,6.685,260.692,0,250.058,0c-10.635,0-19.699,6.685-23.24,16.078c-2.568-1.11-5.396-1.728-8.368-1.728c-10.812,0-19.716,8.097-21.032,18.554c-0.062-0.014-0.12-0.014-0.186-0.014c-11.717,0-21.217,9.504-21.217,21.214C176.015,65.822,185.514,75.325,197.231,75.325z"/>
    <path d="M172.326,341.87c23.233,7.871,48.55,10.23,60.587,10.93c10.408,17.587,10.456,27.282,10.456,27.282h133.516c-11.272-18.279-23.199-31.506-35.373-41.68c0.614-5.636,2.479-11.203,6.963-14.426c22.729-16.332,44.036-44.739,44.036-44.739s-18.468,0-24.148,0c-3.819,7.343-9.452,12.98-15.907,17.402c-6.441-4.964-7.528-15.276-7.528-15.276l-7.813,1.419c0.425,6.829,3.918,14.125,6.648,18.896c-16.504,7.967-35.544,9.826-45.88,10.182c-30.192-14.021-58.948-23.469-80.08-58.191c-7.642-12.561-10.788-26.486-10.792-40.85c-10.216-1.173-22.064-2.112-35.386-2.263c-0.531,4.896-0.61,9.929-0.377,15.03c-13.134-3.956-18.31-14.529-18.31-14.529l-10.415,1.892c7.579,18.321,22.293,28.18,31.269,32.74c1.316,6.5,3.037,12.966,5.084,19.246c13.668,2.394,24.1,14.33,24.1,28.674c0,5.314-1.45,10.271-3.939,14.563c3.541,5.547,7.038,10.209,10.244,13.679c2.304,2.496,4.429,4.909,6.431,7.261c-34.255,15.146-68.928-11.526-68.928-11.526c-1.796,0,3.254-0.878-14.676-1.426c5.444,7.392,13.223,13.281,22.116,18.012c-9.4-0.706-24.862-4.011-38.215-17.066c0,0-4.734,0-8.523,0.48C107.484,317.585,130.293,348.686,172.326,341.87z"/>
    <path d="M218.823,113.77c7.378,0.514,14.22,3.154,19.898,7.343c14.865-23.73,30.604-41.18,36.607-44.992l-18.464-2.846L240.53,90.684l-7.103-17.409l-8.523,2.846c0,0,4.262,10.648,2.839,19.884C227.174,99.7,223.749,105.85,218.823,113.77z"/>
    <path d="M223.831,512h145.477c49.572-23.093,86.326-69.024,96.755-124.281H127.079C137.509,442.976,174.256,488.907,223.831,512z"/>
  </g>
</svg>
